<svg width="50" height="15" viewBox="0 0 50 15" fill="none" xmlns="http://www.w3.org/2000/svg">
<path d="M18.221 11.5477C17.681 11.5477 17.1777 11.4611 16.711 11.2877C16.251 11.1077 15.851 10.8544 15.511 10.5277C15.171 10.2011 14.9043 9.81773 14.711 9.37773C14.5243 8.93773 14.431 8.4544 14.431 7.92773C14.431 7.40107 14.5243 6.91773 14.711 6.47773C14.9043 6.03773 15.171 5.6544 15.511 5.32773C15.8577 5.00107 16.261 4.75107 16.721 4.57773C17.181 4.39773 17.6843 4.30773 18.231 4.30773C18.8377 4.30773 19.3843 4.4144 19.871 4.62773C20.3643 4.8344 20.7777 5.14107 21.111 5.54773L20.071 6.50773C19.831 6.2344 19.5643 6.03107 19.271 5.89773C18.9777 5.75773 18.6577 5.68773 18.311 5.68773C17.9843 5.68773 17.6843 5.74107 17.411 5.84773C17.1377 5.9544 16.901 6.10773 16.701 6.30773C16.501 6.50773 16.3443 6.7444 16.231 7.01773C16.1243 7.29107 16.071 7.5944 16.071 7.92773C16.071 8.26107 16.1243 8.5644 16.231 8.83773C16.3443 9.11107 16.501 9.34773 16.701 9.54773C16.901 9.74773 17.1377 9.90107 17.411 10.0077C17.6843 10.1144 17.9843 10.1677 18.311 10.1677C18.6577 10.1677 18.9777 10.1011 19.271 9.96773C19.5643 9.82773 19.831 9.61773 20.071 9.33773L21.111 10.2977C20.7777 10.7044 20.3643 11.0144 19.871 11.2277C19.3843 11.4411 18.8343 11.5477 18.221 11.5477ZM22.205 11.4277V4.42773H25.235C25.8617 4.42773 26.4017 4.53107 26.855 4.73773C27.3083 4.93773 27.6583 5.22773 27.905 5.60773C28.1517 5.98773 28.275 6.44107 28.275 6.96773C28.275 7.48773 28.1517 7.93773 27.905 8.31773C27.6583 8.69773 27.3083 8.99107 26.855 9.19773C26.4017 9.39773 25.8617 9.49773 25.235 9.49773H23.105L23.825 8.76773V11.4277H22.205ZM23.825 8.94773L23.105 8.17773H25.145C25.645 8.17773 26.0183 8.07107 26.265 7.85773C26.5117 7.6444 26.635 7.34773 26.635 6.96773C26.635 6.58107 26.5117 6.28107 26.265 6.06773C26.0183 5.8544 25.645 5.74773 25.145 5.74773H23.105L23.825 4.97773V8.94773ZM30.9316 7.57773H34.2916V8.87773H30.9316V7.57773ZM31.0516 11.4277H29.4316V4.42773H34.7216V5.72773H31.0516V11.4277Z" fill="#AAD7FF"/>
<g opacity="0.8">
<path d="M47.041 5.09375L45.041 3.09375L43.041 5.09375" stroke="#AEB9E1" stroke-width="0.8" stroke-linecap="round" stroke-linejoin="round"/>
</g>
<g opacity="0.8">
<path d="M43.041 9.76172L45.041 11.7617L47.041 9.76172" stroke="#AEB9E1" stroke-width="0.8" stroke-linecap="round" stroke-linejoin="round"/>
</g>
</svg>
