<svg width="63" height="15" viewBox="0 0 63 15" fill="none" xmlns="http://www.w3.org/2000/svg">
<path d="M16.4626 7.24773H19.8326V8.50773H16.4626V7.24773ZM16.5826 10.1277H20.3926V11.4277H14.9726V4.42773H20.2626V5.72773H16.5826V10.1277ZM21.1763 9.23773V7.98773H24.0063V9.23773H21.1763ZM32.1237 5.96773C32.5503 5.96773 32.927 6.0544 33.2537 6.22773C33.587 6.3944 33.847 6.6544 34.0337 7.00773C34.227 7.3544 34.3237 7.80107 34.3237 8.34773V11.4277H32.7637V8.58773C32.7637 8.1544 32.6737 7.8344 32.4937 7.62773C32.3137 7.42107 32.0603 7.31773 31.7337 7.31773C31.507 7.31773 31.3037 7.37107 31.1237 7.47773C30.9437 7.57773 30.8037 7.73107 30.7037 7.93773C30.6037 8.1444 30.5537 8.40773 30.5537 8.72773V11.4277H28.9937V8.58773C28.9937 8.1544 28.9037 7.8344 28.7237 7.62773C28.5503 7.42107 28.3003 7.31773 27.9737 7.31773C27.747 7.31773 27.5437 7.37107 27.3637 7.47773C27.1837 7.57773 27.0437 7.73107 26.9437 7.93773C26.8437 8.1444 26.7937 8.40773 26.7937 8.72773V11.4277H25.2337V6.04773H26.7237V7.51773L26.4437 7.08773C26.6303 6.72107 26.8937 6.4444 27.2337 6.25773C27.5803 6.0644 27.9737 5.96773 28.4137 5.96773C28.907 5.96773 29.337 6.0944 29.7037 6.34773C30.077 6.5944 30.3237 6.9744 30.4437 7.48773L29.8937 7.33773C30.0737 6.91773 30.3603 6.5844 30.7537 6.33773C31.1537 6.09107 31.6103 5.96773 32.1237 5.96773ZM39.022 11.4277V10.3777L38.922 10.1477V8.26773C38.922 7.9344 38.8186 7.6744 38.612 7.48773C38.412 7.30107 38.102 7.20773 37.682 7.20773C37.3953 7.20773 37.112 7.2544 36.832 7.34773C36.5586 7.4344 36.3253 7.5544 36.132 7.70773L35.572 6.61773C35.8653 6.41107 36.2186 6.25107 36.632 6.13773C37.0453 6.0244 37.4653 5.96773 37.892 5.96773C38.712 5.96773 39.3486 6.16107 39.802 6.54773C40.2553 6.9344 40.482 7.53773 40.482 8.35773V11.4277H39.022ZM37.382 11.5077C36.962 11.5077 36.602 11.4377 36.302 11.2977C36.002 11.1511 35.772 10.9544 35.612 10.7077C35.452 10.4611 35.372 10.1844 35.372 9.87773C35.372 9.55773 35.4486 9.27773 35.602 9.03773C35.762 8.79773 36.012 8.61107 36.352 8.47773C36.692 8.33773 37.1353 8.26773 37.682 8.26773H39.112V9.17773H37.852C37.4853 9.17773 37.232 9.23773 37.092 9.35773C36.9586 9.47773 36.892 9.62773 36.892 9.80773C36.892 10.0077 36.9686 10.1677 37.122 10.2877C37.282 10.4011 37.4986 10.4577 37.772 10.4577C38.032 10.4577 38.2653 10.3977 38.472 10.2777C38.6786 10.1511 38.8286 9.96773 38.922 9.72773L39.162 10.4477C39.0486 10.7944 38.842 11.0577 38.542 11.2377C38.242 11.4177 37.8553 11.5077 37.382 11.5077ZM41.8938 11.4277V6.04773H43.4538V11.4277H41.8938ZM42.6738 5.29773C42.3872 5.29773 42.1538 5.2144 41.9738 5.04773C41.7938 4.88107 41.7038 4.6744 41.7038 4.42773C41.7038 4.18107 41.7938 3.9744 41.9738 3.80773C42.1538 3.64107 42.3872 3.55773 42.6738 3.55773C42.9605 3.55773 43.1938 3.63773 43.3738 3.79773C43.5538 3.95107 43.6438 4.15107 43.6438 4.39773C43.6438 4.65773 43.5538 4.8744 43.3738 5.04773C43.2005 5.2144 42.9672 5.29773 42.6738 5.29773ZM44.9016 11.4277V4.00773H46.4616V11.4277H44.9016Z" fill="#AAD7FF"/>
<g opacity="0.8">
<path d="M60.1426 5.09375L58.1426 3.09375L56.1426 5.09375" stroke="#AEB9E1" stroke-width="0.8" stroke-linecap="round" stroke-linejoin="round"/>
</g>
<g opacity="0.8">
<path d="M56.1426 9.76172L58.1426 11.7617L60.1426 9.76172" stroke="#AEB9E1" stroke-width="0.8" stroke-linecap="round" stroke-linejoin="round"/>
</g>
</svg>
