<svg width="71" height="15" viewBox="0 0 71 15" fill="none" xmlns="http://www.w3.org/2000/svg">
<path d="M10.1042 2.42773H1.77083C1.54982 2.42773 1.33786 2.51553 1.18158 2.67181C1.0253 2.82809 0.9375 3.04005 0.9375 3.26107V11.5944C0.9375 11.8154 1.0253 12.0274 1.18158 12.1837C1.33786 12.3399 1.54982 12.4277 1.77083 12.4277H10.1042C10.3252 12.4277 10.5371 12.3399 10.6934 12.1837C10.8497 12.0274 10.9375 11.8154 10.9375 11.5944V3.26107C10.9375 3.04005 10.8497 2.82809 10.6934 2.67181C10.5371 2.51553 10.3252 2.42773 10.1042 2.42773V2.42773ZM8.51562 6.47982L5.46354 9.39648C5.38464 9.47071 5.2802 9.51174 5.17188 9.51107C5.06514 9.51147 4.96243 9.47039 4.88542 9.39648L3.35937 7.93815C3.31705 7.90122 3.28263 7.85612 3.25817 7.80555C3.23372 7.75497 3.21975 7.69998 3.2171 7.64387C3.21444 7.58776 3.22316 7.5317 3.24273 7.47904C3.26229 7.42639 3.2923 7.37824 3.33096 7.33748C3.36961 7.29672 3.4161 7.26419 3.46764 7.24186C3.51918 7.21953 3.57471 7.20785 3.63088 7.20752C3.68705 7.2072 3.74271 7.21823 3.7945 7.23996C3.8463 7.26169 3.89317 7.29368 3.93229 7.33398L5.17188 8.51628L7.94271 5.87565C8.02372 5.80497 8.12893 5.76834 8.23632 5.77342C8.34372 5.7785 8.44499 5.8249 8.51898 5.90292C8.59296 5.98093 8.63392 6.08453 8.63329 6.19204C8.63267 6.29955 8.59051 6.40267 8.51562 6.47982Z" fill="#AEB9E1"/>
<path d="M16.9675 11.5277C16.5208 11.5277 16.1075 11.4411 15.7275 11.2677C15.3542 11.0944 15.0475 10.8444 14.8075 10.5177L15.5475 9.62773C15.7408 9.8944 15.9508 10.0944 16.1775 10.2277C16.4108 10.3611 16.6642 10.4277 16.9375 10.4277C17.6642 10.4277 18.0275 9.99773 18.0275 9.13773V5.51773H15.5375V4.42773H19.3275V9.06773C19.3275 9.8944 19.1242 10.5111 18.7175 10.9177C18.3175 11.3244 17.7342 11.5277 16.9675 11.5277ZM23.4309 11.4977C22.8843 11.4977 22.3976 11.3811 21.9709 11.1477C21.5443 10.9077 21.2076 10.5811 20.9609 10.1677C20.7143 9.7544 20.5909 9.2844 20.5909 8.75773C20.5909 8.2244 20.7143 7.7544 20.9609 7.34773C21.2076 6.9344 21.5443 6.61107 21.9709 6.37773C22.3976 6.1444 22.8843 6.02773 23.4309 6.02773C23.9843 6.02773 24.4743 6.1444 24.9009 6.37773C25.3343 6.61107 25.6709 6.93107 25.9109 7.33773C26.1576 7.7444 26.2809 8.21773 26.2809 8.75773C26.2809 9.2844 26.1576 9.7544 25.9109 10.1677C25.6709 10.5811 25.3343 10.9077 24.9009 11.1477C24.4743 11.3811 23.9843 11.4977 23.4309 11.4977ZM23.4309 10.4277C23.7376 10.4277 24.0109 10.3611 24.2509 10.2277C24.4909 10.0944 24.6776 9.90107 24.8109 9.64773C24.9509 9.3944 25.0209 9.09773 25.0209 8.75773C25.0209 8.41107 24.9509 8.1144 24.8109 7.86773C24.6776 7.6144 24.4909 7.42107 24.2509 7.28773C24.0109 7.1544 23.7409 7.08773 23.4409 7.08773C23.1343 7.08773 22.8609 7.1544 22.6209 7.28773C22.3876 7.42107 22.2009 7.6144 22.0609 7.86773C21.9209 8.1144 21.8509 8.41107 21.8509 8.75773C21.8509 9.09773 21.9209 9.3944 22.0609 9.64773C22.2009 9.90107 22.3876 10.0944 22.6209 10.2277C22.8609 10.3611 23.1309 10.4277 23.4309 10.4277ZM27.4763 11.4277V6.08773H28.6663V7.55773L28.5263 7.12773C28.6863 6.76773 28.9363 6.4944 29.2763 6.30773C29.6229 6.12107 30.0529 6.02773 30.5663 6.02773V7.21773C30.5129 7.2044 30.4629 7.19773 30.4163 7.19773C30.3696 7.19107 30.3229 7.18773 30.2763 7.18773C29.8029 7.18773 29.4263 7.32773 29.1463 7.60773C28.8663 7.88107 28.7263 8.29107 28.7263 8.83773V11.4277H27.4763ZM34.6566 6.02773C35.0833 6.02773 35.4633 6.11107 35.7966 6.27773C36.1366 6.4444 36.4033 6.70107 36.5966 7.04773C36.79 7.38773 36.8866 7.82773 36.8866 8.36773V11.4277H35.6366V8.52773C35.6366 8.0544 35.5233 7.70107 35.2966 7.46773C35.0766 7.2344 34.7666 7.11773 34.3666 7.11773C34.0733 7.11773 33.8133 7.17773 33.5866 7.29773C33.36 7.41773 33.1833 7.59773 33.0566 7.83773C32.9366 8.07107 32.8766 8.36773 32.8766 8.72773V11.4277H31.6266V6.08773H32.8166V7.52773L32.6066 7.08773C32.7933 6.74773 33.0633 6.48773 33.4166 6.30773C33.7766 6.12107 34.19 6.02773 34.6566 6.02773ZM41.7623 11.4277V10.3477L41.6923 10.1177V8.22773C41.6923 7.86107 41.5823 7.57773 41.3623 7.37773C41.1423 7.17107 40.809 7.06773 40.3623 7.06773C40.0623 7.06773 39.7657 7.1144 39.4723 7.20773C39.1857 7.30107 38.9423 7.43107 38.7423 7.59773L38.2523 6.68773C38.539 6.46773 38.879 6.3044 39.2723 6.19773C39.6723 6.0844 40.0857 6.02773 40.5123 6.02773C41.2857 6.02773 41.8823 6.2144 42.3023 6.58773C42.729 6.9544 42.9423 7.5244 42.9423 8.29773V11.4277H41.7623ZM40.0823 11.4977C39.6823 11.4977 39.3323 11.4311 39.0323 11.2977C38.7323 11.1577 38.499 10.9677 38.3323 10.7277C38.1723 10.4811 38.0923 10.2044 38.0923 9.89773C38.0923 9.59773 38.1623 9.32773 38.3023 9.08773C38.449 8.84773 38.6857 8.65773 39.0123 8.51773C39.339 8.37773 39.7723 8.30773 40.3123 8.30773H41.8623V9.13773H40.4023C39.9757 9.13773 39.689 9.20773 39.5423 9.34773C39.3957 9.48107 39.3223 9.64773 39.3223 9.84773C39.3223 10.0744 39.4123 10.2544 39.5923 10.3877C39.7723 10.5211 40.0223 10.5877 40.3423 10.5877C40.649 10.5877 40.9223 10.5177 41.1623 10.3777C41.409 10.2377 41.5857 10.0311 41.6923 9.75773L41.9023 10.5077C41.7823 10.8211 41.5657 11.0644 41.2523 11.2377C40.9457 11.4111 40.5557 11.4977 40.0823 11.4977ZM46.8163 11.4977C46.303 11.4977 45.8397 11.3844 45.4263 11.1577C45.0197 10.9244 44.6997 10.6044 44.4663 10.1977C44.233 9.79107 44.1163 9.31107 44.1163 8.75773C44.1163 8.2044 44.233 7.7244 44.4663 7.31773C44.6997 6.91107 45.0197 6.5944 45.4263 6.36773C45.8397 6.14107 46.303 6.02773 46.8163 6.02773C47.263 6.02773 47.663 6.12773 48.0163 6.32773C48.3697 6.52107 48.6497 6.81773 48.8563 7.21773C49.063 7.61773 49.1663 8.13107 49.1663 8.75773C49.1663 9.37773 49.0663 9.89107 48.8663 10.2977C48.6663 10.6977 48.3897 10.9977 48.0363 11.1977C47.683 11.3977 47.2763 11.4977 46.8163 11.4977ZM46.9663 10.4277C47.2663 10.4277 47.533 10.3611 47.7663 10.2277C48.0063 10.0944 48.1963 9.90107 48.3363 9.64773C48.483 9.3944 48.5563 9.09773 48.5563 8.75773C48.5563 8.41107 48.483 8.1144 48.3363 7.86773C48.1963 7.6144 48.0063 7.42107 47.7663 7.28773C47.533 7.1544 47.2663 7.08773 46.9663 7.08773C46.6663 7.08773 46.3963 7.1544 46.1563 7.28773C45.923 7.42107 45.733 7.6144 45.5863 7.86773C45.4463 8.1144 45.3763 8.41107 45.3763 8.75773C45.3763 9.09773 45.4463 9.3944 45.5863 9.64773C45.733 9.90107 45.923 10.0944 46.1563 10.2277C46.3963 10.3611 46.6663 10.4277 46.9663 10.4277ZM48.5863 11.4277V10.1677L48.6363 8.74773L48.5363 7.32773V4.00773H49.7763V11.4277H48.5863ZM54.7116 11.4277V10.3477L54.6416 10.1177V8.22773C54.6416 7.86107 54.5316 7.57773 54.3116 7.37773C54.0916 7.17107 53.7582 7.06773 53.3116 7.06773C53.0116 7.06773 52.7149 7.1144 52.4216 7.20773C52.1349 7.30107 51.8916 7.43107 51.6916 7.59773L51.2016 6.68773C51.4882 6.46773 51.8282 6.3044 52.2216 6.19773C52.6216 6.0844 53.0349 6.02773 53.4616 6.02773C54.2349 6.02773 54.8316 6.2144 55.2516 6.58773C55.6782 6.9544 55.8916 7.5244 55.8916 8.29773V11.4277H54.7116ZM53.0316 11.4977C52.6316 11.4977 52.2816 11.4311 51.9816 11.2977C51.6816 11.1577 51.4482 10.9677 51.2816 10.7277C51.1216 10.4811 51.0416 10.2044 51.0416 9.89773C51.0416 9.59773 51.1116 9.32773 51.2516 9.08773C51.3982 8.84773 51.6349 8.65773 51.9616 8.51773C52.2882 8.37773 52.7216 8.30773 53.2616 8.30773H54.8116V9.13773H53.3516C52.9249 9.13773 52.6382 9.20773 52.4916 9.34773C52.3449 9.48107 52.2716 9.64773 52.2716 9.84773C52.2716 10.0744 52.3616 10.2544 52.5416 10.3877C52.7216 10.5211 52.9716 10.5877 53.2916 10.5877C53.5982 10.5877 53.8716 10.5177 54.1116 10.3777C54.3582 10.2377 54.5349 10.0311 54.6416 9.75773L54.8516 10.5077C54.7316 10.8211 54.5149 11.0644 54.2016 11.2377C53.8949 11.4111 53.5049 11.4977 53.0316 11.4977Z" fill="white"/>
<g opacity="0.8">
<path d="M68.9375 5.09375L66.9375 3.09375L64.9375 5.09375" stroke="#AEB9E1" stroke-width="0.8" stroke-linecap="round" stroke-linejoin="round"/>
</g>
<g opacity="0.8">
<path d="M64.9375 9.76172L66.9375 11.7617L68.9375 9.76172" stroke="#AEB9E1" stroke-width="0.8" stroke-linecap="round" stroke-linejoin="round"/>
</g>
</svg>
