<svg width="60" height="15" viewBox="0 0 60 15" fill="none" xmlns="http://www.w3.org/2000/svg">
<path d="M14.83 11.4277V4.42773H16.17L20.3 9.46773H19.65V4.42773H21.25V11.4277H19.92L15.78 6.38773H16.43V11.4277H14.83ZM25.3562 11.5077C24.7828 11.5077 24.2728 11.3877 23.8262 11.1477C23.3862 10.9077 23.0362 10.5811 22.7762 10.1677C22.5228 9.74773 22.3962 9.27107 22.3962 8.73773C22.3962 8.19773 22.5228 7.72107 22.7762 7.30773C23.0362 6.88773 23.3862 6.56107 23.8262 6.32773C24.2728 6.08773 24.7828 5.96773 25.3562 5.96773C25.9228 5.96773 26.4295 6.08773 26.8762 6.32773C27.3228 6.56107 27.6728 6.8844 27.9262 7.29773C28.1795 7.71107 28.3062 8.19107 28.3062 8.73773C28.3062 9.27107 28.1795 9.74773 27.9262 10.1677C27.6728 10.5811 27.3228 10.9077 26.8762 11.1477C26.4295 11.3877 25.9228 11.5077 25.3562 11.5077ZM25.3562 10.2277C25.6162 10.2277 25.8495 10.1677 26.0562 10.0477C26.2628 9.92773 26.4262 9.75773 26.5462 9.53773C26.6662 9.31107 26.7262 9.0444 26.7262 8.73773C26.7262 8.4244 26.6662 8.15773 26.5462 7.93773C26.4262 7.71773 26.2628 7.54773 26.0562 7.42773C25.8495 7.30773 25.6162 7.24773 25.3562 7.24773C25.0962 7.24773 24.8628 7.30773 24.6562 7.42773C24.4495 7.54773 24.2828 7.71773 24.1562 7.93773C24.0362 8.15773 23.9762 8.4244 23.9762 8.73773C23.9762 9.0444 24.0362 9.31107 24.1562 9.53773C24.2828 9.75773 24.4495 9.92773 24.6562 10.0477C24.8628 10.1677 25.0962 10.2277 25.3562 10.2277ZM36.2389 5.96773C36.6656 5.96773 37.0422 6.0544 37.3689 6.22773C37.7022 6.3944 37.9622 6.6544 38.1489 7.00773C38.3422 7.3544 38.4389 7.80107 38.4389 8.34773V11.4277H36.8789V8.58773C36.8789 8.1544 36.7889 7.8344 36.6089 7.62773C36.4289 7.42107 36.1756 7.31773 35.8489 7.31773C35.6222 7.31773 35.4189 7.37107 35.2389 7.47773C35.0589 7.57773 34.9189 7.73107 34.8189 7.93773C34.7189 8.1444 34.6689 8.40773 34.6689 8.72773V11.4277H33.1089V8.58773C33.1089 8.1544 33.0189 7.8344 32.8389 7.62773C32.6656 7.42107 32.4156 7.31773 32.0889 7.31773C31.8622 7.31773 31.6589 7.37107 31.4789 7.47773C31.2989 7.57773 31.1589 7.73107 31.0589 7.93773C30.9589 8.1444 30.9089 8.40773 30.9089 8.72773V11.4277H29.3489V6.04773H30.8389V7.51773L30.5589 7.08773C30.7456 6.72107 31.0089 6.4444 31.3489 6.25773C31.6956 6.0644 32.0889 5.96773 32.5289 5.96773C33.0222 5.96773 33.4522 6.0944 33.8189 6.34773C34.1922 6.5944 34.4389 6.9744 34.5589 7.48773L34.0089 7.33773C34.1889 6.91773 34.4756 6.5844 34.8689 6.33773C35.2689 6.09107 35.7256 5.96773 36.2389 5.96773ZM42.5463 11.5077C41.9329 11.5077 41.3929 11.3877 40.9263 11.1477C40.4663 10.9077 40.1096 10.5811 39.8563 10.1677C39.6029 9.74773 39.4763 9.27107 39.4763 8.73773C39.4763 8.19773 39.5996 7.72107 39.8463 7.30773C40.0996 6.88773 40.4429 6.56107 40.8763 6.32773C41.3096 6.08773 41.7996 5.96773 42.3463 5.96773C42.8729 5.96773 43.3463 6.08107 43.7663 6.30773C44.1929 6.52773 44.5296 6.84773 44.7763 7.26773C45.0229 7.68107 45.1463 8.17773 45.1463 8.75773C45.1463 8.81773 45.1429 8.88773 45.1363 8.96773C45.1296 9.04107 45.1229 9.11107 45.1163 9.17773H40.7463V8.26773H44.2962L43.6963 8.53773C43.6963 8.25773 43.6396 8.0144 43.5263 7.80773C43.4129 7.60107 43.2563 7.44107 43.0563 7.32773C42.8563 7.20773 42.6229 7.14773 42.3563 7.14773C42.0896 7.14773 41.8529 7.20773 41.6463 7.32773C41.4463 7.44107 41.2896 7.6044 41.1763 7.81773C41.0629 8.0244 41.0063 8.27107 41.0063 8.55773V8.79773C41.0063 9.09107 41.0696 9.35107 41.1963 9.57773C41.3296 9.79773 41.5129 9.96773 41.7463 10.0877C41.9863 10.2011 42.2663 10.2577 42.5863 10.2577C42.8729 10.2577 43.1229 10.2144 43.3363 10.1277C43.5563 10.0411 43.7563 9.91107 43.9363 9.73773L44.7663 10.6377C44.5196 10.9177 44.2096 11.1344 43.8363 11.2877C43.4629 11.4344 43.0329 11.5077 42.5463 11.5077Z" fill="#AAD7FF"/>
<g opacity="0.8">
<path d="M58 5.09375L56 3.09375L54 5.09375" stroke="#AEB9E1" stroke-width="0.8" stroke-linecap="round" stroke-linejoin="round"/>
</g>
<g opacity="0.8">
<path d="M54 9.76172L56 11.7617L58 9.76172" stroke="#AEB9E1" stroke-width="0.8" stroke-linecap="round" stroke-linejoin="round"/>
</g>
</svg>
