<svg width="84" height="15" viewBox="0 0 84 15" fill="none" xmlns="http://www.w3.org/2000/svg">
<path d="M15.6054 11.4277V4.42773H18.6354C19.2621 4.42773 19.8021 4.53107 20.2554 4.73773C20.7087 4.93773 21.0587 5.22773 21.3054 5.60773C21.5521 5.98773 21.6754 6.44107 21.6754 6.96773C21.6754 7.48773 21.5521 7.93773 21.3054 8.31773C21.0587 8.69773 20.7087 8.99107 20.2554 9.19773C19.8021 9.39773 19.2621 9.49773 18.6354 9.49773H16.5054L17.2254 8.76773V11.4277H15.6054ZM17.2254 8.94773L16.5054 8.17773H18.5454C19.0454 8.17773 19.4187 8.07107 19.6654 7.85773C19.9121 7.6444 20.0354 7.34773 20.0354 6.96773C20.0354 6.58107 19.9121 6.28107 19.6654 6.06773C19.4187 5.8544 19.0454 5.74773 18.5454 5.74773H16.5054L17.2254 4.97773V8.94773ZM25.3822 11.5077C24.7689 11.5077 24.2289 11.3877 23.7622 11.1477C23.3022 10.9077 22.9455 10.5811 22.6922 10.1677C22.4389 9.74773 22.3122 9.27107 22.3122 8.73773C22.3122 8.19773 22.4355 7.72107 22.6822 7.30773C22.9355 6.88773 23.2789 6.56107 23.7122 6.32773C24.1455 6.08773 24.6355 5.96773 25.1822 5.96773C25.7089 5.96773 26.1822 6.08107 26.6022 6.30773C27.0289 6.52773 27.3655 6.84773 27.6122 7.26773C27.8589 7.68107 27.9822 8.17773 27.9822 8.75773C27.9822 8.81773 27.9789 8.88773 27.9722 8.96773C27.9655 9.04107 27.9589 9.11107 27.9522 9.17773H23.5822V8.26773H27.1322L26.5322 8.53773C26.5322 8.25773 26.4755 8.0144 26.3622 7.80773C26.2489 7.60107 26.0922 7.44107 25.8922 7.32773C25.6922 7.20773 25.4589 7.14773 25.1922 7.14773C24.9255 7.14773 24.6889 7.20773 24.4822 7.32773C24.2822 7.44107 24.1255 7.6044 24.0122 7.81773C23.8989 8.0244 23.8422 8.27107 23.8422 8.55773V8.79773C23.8422 9.09107 23.9055 9.35107 24.0322 9.57773C24.1655 9.79773 24.3489 9.96773 24.5822 10.0877C24.8222 10.2011 25.1022 10.2577 25.4222 10.2577C25.7089 10.2577 25.9589 10.2144 26.1722 10.1277C26.3922 10.0411 26.5922 9.91107 26.7722 9.73773L27.6022 10.6377C27.3555 10.9177 27.0455 11.1344 26.6722 11.2877C26.2989 11.4344 25.8689 11.5077 25.3822 11.5077ZM29.0208 11.4277V6.04773H30.5108V7.56773L30.3008 7.12773C30.4608 6.74773 30.7174 6.46107 31.0708 6.26773C31.4241 6.06773 31.8541 5.96773 32.3608 5.96773V7.40773C32.2941 7.40107 32.2341 7.39773 32.1808 7.39773C32.1274 7.39107 32.0708 7.38773 32.0108 7.38773C31.5841 7.38773 31.2374 7.51107 30.9708 7.75773C30.7108 7.99773 30.5808 8.3744 30.5808 8.88773V11.4277H29.0208ZM40.1881 5.96773C40.6148 5.96773 40.9915 6.0544 41.3181 6.22773C41.6515 6.3944 41.9115 6.6544 42.0981 7.00773C42.2915 7.3544 42.3881 7.80107 42.3881 8.34773V11.4277H40.8281V8.58773C40.8281 8.1544 40.7381 7.8344 40.5581 7.62773C40.3781 7.42107 40.1248 7.31773 39.7981 7.31773C39.5715 7.31773 39.3681 7.37107 39.1881 7.47773C39.0081 7.57773 38.8681 7.73107 38.7681 7.93773C38.6681 8.1444 38.6181 8.40773 38.6181 8.72773V11.4277H37.0581V8.58773C37.0581 8.1544 36.9681 7.8344 36.7881 7.62773C36.6148 7.42107 36.3648 7.31773 36.0381 7.31773C35.8115 7.31773 35.6081 7.37107 35.4281 7.47773C35.2481 7.57773 35.1081 7.73107 35.0081 7.93773C34.9081 8.1444 34.8581 8.40773 34.8581 8.72773V11.4277H33.2981V6.04773H34.7881V7.51773L34.5081 7.08773C34.6948 6.72107 34.9581 6.4444 35.2981 6.25773C35.6448 6.0644 36.0381 5.96773 36.4781 5.96773C36.9715 5.96773 37.4015 6.0944 37.7681 6.34773C38.1415 6.5944 38.3881 6.9744 38.5081 7.48773L37.9581 7.33773C38.1381 6.91773 38.4248 6.5844 38.8181 6.33773C39.2181 6.09107 39.6748 5.96773 40.1881 5.96773ZM43.7864 11.4277V6.04773H45.3464V11.4277H43.7864ZM44.5664 5.29773C44.2797 5.29773 44.0464 5.2144 43.8664 5.04773C43.6864 4.88107 43.5964 4.6744 43.5964 4.42773C43.5964 4.18107 43.6864 3.9744 43.8664 3.80773C44.0464 3.64107 44.2797 3.55773 44.5664 3.55773C44.8531 3.55773 45.0864 3.63773 45.2664 3.79773C45.4464 3.95107 45.5364 4.15107 45.5364 4.39773C45.5364 4.65773 45.4464 4.8744 45.2664 5.04773C45.0931 5.2144 44.8597 5.29773 44.5664 5.29773ZM48.6042 11.5077C48.1442 11.5077 47.7009 11.4544 47.2742 11.3477C46.8542 11.2344 46.5209 11.0944 46.2742 10.9277L46.7942 9.80773C47.0409 9.96107 47.3309 10.0877 47.6642 10.1877C48.0042 10.2811 48.3376 10.3277 48.6642 10.3277C49.0242 10.3277 49.2776 10.2844 49.4242 10.1977C49.5776 10.1111 49.6542 9.99107 49.6542 9.83773C49.6542 9.71107 49.5942 9.61773 49.4742 9.55773C49.3609 9.49107 49.2076 9.44107 49.0142 9.40773C48.8209 9.3744 48.6076 9.34107 48.3742 9.30773C48.1476 9.2744 47.9176 9.23107 47.6842 9.17773C47.4509 9.11773 47.2376 9.03107 47.0442 8.91773C46.8509 8.8044 46.6942 8.65107 46.5742 8.45773C46.4609 8.2644 46.4042 8.0144 46.4042 7.70773C46.4042 7.36773 46.5009 7.06773 46.6942 6.80773C46.8942 6.54773 47.1809 6.3444 47.5542 6.19773C47.9276 6.0444 48.3742 5.96773 48.8942 5.96773C49.2609 5.96773 49.6342 6.00773 50.0142 6.08773C50.3942 6.16773 50.7109 6.2844 50.9642 6.43773L50.4442 7.54773C50.1842 7.3944 49.9209 7.29107 49.6542 7.23773C49.3942 7.17773 49.1409 7.14773 48.8942 7.14773C48.5476 7.14773 48.2942 7.1944 48.1342 7.28773C47.9742 7.38107 47.8942 7.50107 47.8942 7.64773C47.8942 7.78107 47.9509 7.88107 48.0642 7.94773C48.1842 8.0144 48.3409 8.06773 48.5342 8.10773C48.7276 8.14773 48.9376 8.1844 49.1642 8.21773C49.3976 8.2444 49.6309 8.28773 49.8642 8.34773C50.0976 8.40773 50.3076 8.4944 50.4942 8.60773C50.6876 8.7144 50.8442 8.8644 50.9642 9.05773C51.0842 9.2444 51.1442 9.49107 51.1442 9.79773C51.1442 10.1311 51.0442 10.4277 50.8442 10.6877C50.6442 10.9411 50.3542 11.1411 49.9742 11.2877C49.6009 11.4344 49.1442 11.5077 48.6042 11.5077ZM53.9167 11.5077C53.4567 11.5077 53.0134 11.4544 52.5867 11.3477C52.1667 11.2344 51.8334 11.0944 51.5867 10.9277L52.1067 9.80773C52.3534 9.96107 52.6434 10.0877 52.9767 10.1877C53.3167 10.2811 53.6501 10.3277 53.9767 10.3277C54.3367 10.3277 54.5901 10.2844 54.7367 10.1977C54.8901 10.1111 54.9667 9.99107 54.9667 9.83773C54.9667 9.71107 54.9067 9.61773 54.7867 9.55773C54.6734 9.49107 54.5201 9.44107 54.3267 9.40773C54.1334 9.3744 53.9201 9.34107 53.6867 9.30773C53.4601 9.2744 53.2301 9.23107 52.9967 9.17773C52.7634 9.11773 52.5501 9.03107 52.3567 8.91773C52.1634 8.8044 52.0067 8.65107 51.8867 8.45773C51.7734 8.2644 51.7167 8.0144 51.7167 7.70773C51.7167 7.36773 51.8134 7.06773 52.0067 6.80773C52.2067 6.54773 52.4934 6.3444 52.8667 6.19773C53.2401 6.0444 53.6867 5.96773 54.2067 5.96773C54.5734 5.96773 54.9467 6.00773 55.3267 6.08773C55.7067 6.16773 56.0234 6.2844 56.2767 6.43773L55.7567 7.54773C55.4967 7.3944 55.2334 7.29107 54.9667 7.23773C54.7067 7.17773 54.4534 7.14773 54.2067 7.14773C53.8601 7.14773 53.6067 7.1944 53.4467 7.28773C53.2867 7.38107 53.2067 7.50107 53.2067 7.64773C53.2067 7.78107 53.2634 7.88107 53.3767 7.94773C53.4967 8.0144 53.6534 8.06773 53.8467 8.10773C54.0401 8.14773 54.2501 8.1844 54.4767 8.21773C54.7101 8.2444 54.9434 8.28773 55.1767 8.34773C55.4101 8.40773 55.6201 8.4944 55.8067 8.60773C56.0001 8.7144 56.1567 8.8644 56.2767 9.05773C56.3967 9.2444 56.4567 9.49107 56.4567 9.79773C56.4567 10.1311 56.3567 10.4277 56.1567 10.6877C55.9567 10.9411 55.6667 11.1411 55.2867 11.2877C54.9134 11.4344 54.4567 11.5077 53.9167 11.5077ZM60.7192 11.4277V10.3777L60.6192 10.1477V8.26773C60.6192 7.9344 60.5159 7.6744 60.3092 7.48773C60.1092 7.30107 59.7992 7.20773 59.3792 7.20773C59.0926 7.20773 58.8092 7.2544 58.5292 7.34773C58.2559 7.4344 58.0226 7.5544 57.8292 7.70773L57.2692 6.61773C57.5626 6.41107 57.9159 6.25107 58.3292 6.13773C58.7426 6.0244 59.1626 5.96773 59.5892 5.96773C60.4092 5.96773 61.0459 6.16107 61.4992 6.54773C61.9526 6.9344 62.1792 7.53773 62.1792 8.35773V11.4277H60.7192ZM59.0792 11.5077C58.6592 11.5077 58.2992 11.4377 57.9992 11.2977C57.6992 11.1511 57.4692 10.9544 57.3092 10.7077C57.1492 10.4611 57.0692 10.1844 57.0692 9.87773C57.0692 9.55773 57.1459 9.27773 57.2992 9.03773C57.4592 8.79773 57.7092 8.61107 58.0492 8.47773C58.3892 8.33773 58.8326 8.26773 59.3792 8.26773H60.8092V9.17773H59.5492C59.1826 9.17773 58.9292 9.23773 58.7892 9.35773C58.6559 9.47773 58.5892 9.62773 58.5892 9.80773C58.5892 10.0077 58.6659 10.1677 58.8192 10.2877C58.9792 10.4011 59.1959 10.4577 59.4692 10.4577C59.7292 10.4577 59.9626 10.3977 60.1692 10.2777C60.3759 10.1511 60.5259 9.96773 60.6192 9.72773L60.8592 10.4477C60.7459 10.7944 60.5392 11.0577 60.2392 11.2377C59.9392 11.4177 59.5526 11.5077 59.0792 11.5077ZM60.4992 5.38773C60.3259 5.38773 60.1726 5.35773 60.0392 5.29773C59.9059 5.23107 59.7859 5.15773 59.6792 5.07773C59.5726 4.99107 59.4726 4.91773 59.3792 4.85773C59.2859 4.79107 59.1926 4.75773 59.0992 4.75773C58.9659 4.75773 58.8559 4.80773 58.7692 4.90773C58.6826 5.00107 58.6326 5.13773 58.6192 5.31773H57.8292C57.8426 4.87107 57.9526 4.51773 58.1592 4.25773C58.3659 3.99107 58.6459 3.85773 58.9992 3.85773C59.1726 3.85773 59.3259 3.89107 59.4592 3.95773C59.5926 4.01773 59.7126 4.09107 59.8192 4.17773C59.9326 4.2644 60.0359 4.34107 60.1292 4.40773C60.2226 4.46773 60.3126 4.49773 60.3992 4.49773C60.5392 4.49773 60.6526 4.45107 60.7392 4.35773C60.8259 4.25773 60.8726 4.1244 60.8792 3.95773H61.6692C61.6626 4.3844 61.5526 4.73107 61.3392 4.99773C61.1326 5.25773 60.8526 5.38773 60.4992 5.38773ZM66.1902 11.5077C65.6168 11.5077 65.1068 11.3877 64.6602 11.1477C64.2202 10.9077 63.8702 10.5811 63.6102 10.1677C63.3568 9.74773 63.2302 9.27107 63.2302 8.73773C63.2302 8.19773 63.3568 7.72107 63.6102 7.30773C63.8702 6.88773 64.2202 6.56107 64.6602 6.32773C65.1068 6.08773 65.6168 5.96773 66.1902 5.96773C66.7568 5.96773 67.2635 6.08773 67.7102 6.32773C68.1568 6.56107 68.5068 6.8844 68.7602 7.29773C69.0135 7.71107 69.1402 8.19107 69.1402 8.73773C69.1402 9.27107 69.0135 9.74773 68.7602 10.1677C68.5068 10.5811 68.1568 10.9077 67.7102 11.1477C67.2635 11.3877 66.7568 11.5077 66.1902 11.5077ZM66.1902 10.2277C66.4502 10.2277 66.6835 10.1677 66.8902 10.0477C67.0968 9.92773 67.2602 9.75773 67.3802 9.53773C67.5002 9.31107 67.5602 9.0444 67.5602 8.73773C67.5602 8.4244 67.5002 8.15773 67.3802 7.93773C67.2602 7.71773 67.0968 7.54773 66.8902 7.42773C66.6835 7.30773 66.4502 7.24773 66.1902 7.24773C65.9302 7.24773 65.6968 7.30773 65.4902 7.42773C65.2835 7.54773 65.1168 7.71773 64.9902 7.93773C64.8702 8.15773 64.8102 8.4244 64.8102 8.73773C64.8102 9.0444 64.8702 9.31107 64.9902 9.53773C65.1168 9.75773 65.2835 9.92773 65.4902 10.0477C65.6968 10.1677 65.9302 10.2277 66.1902 10.2277Z" fill="#AAD7FF"/>
<g opacity="0.8">
<path d="M81.7754 5.09375L79.7754 3.09375L77.7754 5.09375" stroke="#AEB9E1" stroke-width="0.8" stroke-linecap="round" stroke-linejoin="round"/>
</g>
<g opacity="0.8">
<path d="M77.7754 9.76172L79.7754 11.7617L81.7754 9.76172" stroke="#AEB9E1" stroke-width="0.8" stroke-linecap="round" stroke-linejoin="round"/>
</g>
</svg>
