<svg width="17" height="16" viewBox="0 0 17 16" fill="none" xmlns="http://www.w3.org/2000/svg">
<path d="M5.33558 7.47982C5.84534 7.47982 6.31264 7.24306 6.69066 6.87929C6.29416 6.16829 6.06783 5.36391 6.06783 4.59206C6.06783 3.93749 6.22573 3.32006 6.50367 2.77486C6.15895 2.56347 5.75605 2.43958 5.32387 2.43958C4.06065 2.43958 3.03674 3.47832 3.03674 4.75952C3.03674 6.0409 4.07236 7.47982 5.33558 7.47982Z" fill="#CB3CFF"/>
<path d="M6.8738 8.57994C6.65058 8.53178 6.41949 8.50513 6.18199 8.50513H4.4811C2.67116 8.50513 1.20374 9.97713 1.20374 11.793L1.21142 12.1818C1.21142 12.6892 1.62146 13.1005 2.12719 13.1005H3.80429C3.88663 11.0802 5.12479 9.35785 6.8738 8.57994Z" fill="#CB3CFF"/>
<path d="M10.016 7.96472C11.5822 7.96472 12.8376 6.18041 12.8376 4.59169C12.8376 3.00297 11.5678 1.71497 10.0016 1.71497C8.43534 1.71497 7.16553 3.00297 7.16553 4.59169C7.16571 6.18041 8.4498 7.96472 10.016 7.96472Z" fill="#CB3CFF"/>
<path d="M15.1296 13.3137C15.1296 11.062 13.3101 9.23669 11.0658 9.23669H8.95672C6.7124 9.23669 4.89294 11.062 4.89294 13.3137L4.90264 13.7959C4.90264 14.4249 5.41093 14.935 6.03816 14.935H14.004C14.631 14.935 15.1395 14.4249 15.1395 13.7959L15.1296 13.3137Z" fill="#CB3CFF"/>
</svg>
